<svg width="98" height="53" viewBox="0 0 98 53" fill="none" xmlns="http://www.w3.org/2000/svg">
<path d="M49.3583 0.0200195L58.4348 6.39025L71.8974 3.05118L74.5085 10.9932L89.273 11.4503L84.8206 19.1447L97.5047 23.2931L87.0087 28.9773L94.7066 35.8667L80.5716 38.2384L81.5197 46.2906L66.9838 44.8065L60.9651 52.1768L49.3583 47.1768L37.7515 52.1768L31.7327 44.8065L17.1968 46.2906L18.145 38.2384L4.00999 35.8667L11.7078 28.9773L1.21189 23.2931L13.8959 19.1447L9.44356 11.4503L24.208 10.9932L26.8192 3.05118L40.2817 6.39025L49.3583 0.0200195Z" fill="white"/>
<path d="M28.83 27.3826L23.038 19.2546H27.006L31.134 24.9506L35.198 19.2546H39.038L33.31 27.2546L39.358 36.2146H35.326L31.006 29.6226L26.622 36.2146H22.718L28.83 27.3826ZM42.2243 19.2546H45.7443V31.2546L53.9043 19.2546H57.2643V36.2146H53.7443V24.2146L45.5843 36.2146H42.2243V19.2546ZM65.7555 22.2626H60.1555V19.2546H74.8755V22.2626H69.2755V36.2146H65.7555V22.2626Z" fill="#141414"/>
</svg>
