<svg width="24" height="24" viewBox="0 0 24 24" fill="none" xmlns="http://www.w3.org/2000/svg">
<path fill-rule="evenodd" clip-rule="evenodd" d="M12 4.62188C14.403 4.62188 14.687 4.63089 15.6357 4.67382C16.5152 4.71537 16.991 4.8608 17.3082 4.98546C17.7278 5.1482 18.0284 5.3428 18.3428 5.6572C18.6572 5.97299 18.8518 6.27355 19.0145 6.69252C19.1392 7.0097 19.2846 7.48615 19.3262 8.36427C19.3677 9.31302 19.3774 9.59695 19.3774 12C19.3774 14.403 19.3684 14.687 19.3255 15.6357C19.2839 16.5152 19.1385 16.991 19.0139 17.3082C18.8511 17.7278 18.6565 18.0284 18.3421 18.3428C18.0263 18.6572 17.7258 18.8518 17.3068 19.0145C16.9896 19.1392 16.5132 19.2846 15.635 19.3262C14.6863 19.3677 14.4024 19.3774 11.9993 19.3774C9.59626 19.3774 9.31233 19.3684 8.36357 19.3255C7.48407 19.2839 7.00831 19.1385 6.69114 19.0139C6.27147 18.8511 5.97091 18.6565 5.65651 18.3421C5.34211 18.0263 5.14751 17.7258 4.98476 17.3068C4.86011 16.9896 4.71468 16.5132 4.67313 15.635C4.63158 14.6863 4.62188 14.4024 4.62188 11.9993C4.62188 9.59626 4.63089 9.31233 4.67382 8.36357C4.71537 7.48407 4.8608 7.00831 4.98546 6.69114C5.1482 6.27147 5.3428 5.97091 5.6572 5.65651C5.97299 5.34211 6.27355 5.14751 6.69252 4.98476C7.0097 4.86011 7.48615 4.71468 8.36427 4.67313C9.31302 4.63158 9.59695 4.62188 12 4.62188ZM12 3C9.5554 3 9.24931 3.01039 8.28947 3.05402C7.33241 3.09765 6.67729 3.25 6.10457 3.4723C5.51316 3.70222 5.01039 4.01039 4.51039 4.51108C4.01039 5.01108 3.70222 5.51316 3.47161 6.10388C3.25 6.67729 3.09765 7.33172 3.05402 8.28947C3.01108 9.24931 3 9.5554 3 12C3 14.4446 3.01039 14.7507 3.05402 15.7105C3.09765 16.6683 3.25 17.3227 3.4723 17.8954C3.70222 18.4868 4.01039 18.9896 4.51108 19.4896C5.01108 19.9896 5.51316 20.2978 6.10388 20.5284C6.67729 20.75 7.33172 20.9024 8.28947 20.946C9.24931 20.9896 9.5554 21 12 21C14.4446 21 14.7507 20.9896 15.7105 20.946C16.6683 20.9024 17.3227 20.75 17.8954 20.5277C18.4868 20.2978 18.9896 19.9896 19.4896 19.4889C19.9896 18.9889 20.2978 18.4868 20.5284 17.8961C20.75 17.3227 20.9024 16.6683 20.946 15.7105C20.9896 14.7507 21 14.4432 21 12C21 9.5554 20.9896 9.24931 20.946 8.28947C20.9024 7.33172 20.75 6.67729 20.5277 6.10457C20.2978 5.51316 19.9896 5.01039 19.4889 4.51039C18.9889 4.01039 18.4868 3.70222 17.8961 3.47161C17.3227 3.25 16.6683 3.09765 15.7105 3.05402C14.7507 3.01108 14.4432 3 12 3Z" fill="white"/>
<path fill-rule="evenodd" clip-rule="evenodd" d="M11.9991 7.3773C9.4465 7.3773 7.37725 9.44655 7.37725 11.9992C7.37725 14.5518 9.4465 16.6211 11.9991 16.6211C14.5518 16.6211 16.621 14.5518 16.621 11.9992C16.621 9.44655 14.5518 7.3773 11.9991 7.3773ZM11.9991 14.9992C10.3426 14.9992 8.99913 13.6557 8.99913 11.9992C8.99913 10.3427 10.3426 8.99918 11.9991 8.99918C13.6556 8.99918 14.9991 10.3427 14.9991 11.9992C14.9991 13.6557 13.6556 14.9992 11.9991 14.9992ZM17.8835 7.19517C17.8835 7.79074 17.4001 8.2755 16.8032 8.2755C16.2076 8.2755 15.7228 7.79074 15.7228 7.19517C15.7228 6.59821 16.2076 6.11483 16.8032 6.11483C17.4001 6.11483 17.8835 6.59821 17.8835 7.19517Z" fill="white"/>
</svg>
