<svg width="39" height="39" viewBox="0 0 39 39" fill="none" xmlns="http://www.w3.org/2000/svg">
<mask id="mask0_1:34915" style="mask-type:alpha" maskUnits="userSpaceOnUse" x="0" y="0" width="39" height="39">
<circle cx="19.5" cy="19.5" r="19.5" fill="#C4C4C4"/>
</mask>
<g mask="url(#mask0_1:34915)">
<path d="M39 32.035H0V23.692H39V32.035ZM39 6.9978H0V15.3408H39V6.9978Z" fill="url(#paint0_linear_1:34915)"/>
<path d="M39 6.99788H0V0H39V6.99788ZM39 32.0351H0V38.9917H39V32.0351ZM39 15.3409H0V23.6839H39V15.3409Z" fill="#020203"/>
<path opacity="0.3" d="M35.9054 13.3933C35.9054 6.8658 30.6075 1.56787 24.0799 1.56787C17.5524 1.56787 12.2545 6.8658 12.2545 13.3933C12.2545 19.9208 17.5442 25.2187 24.0799 25.2187C30.6075 25.2187 35.9054 19.9291 35.9054 13.3933Z" fill="url(#paint1_radial_1:34915)"/>
</g>
<defs>
<linearGradient id="paint0_linear_1:34915" x1="0" y1="19.5159" x2="39.0016" y2="19.5159" gradientUnits="userSpaceOnUse">
<stop offset="0.1" stop-color="#F7A521"/>
<stop offset="0.9" stop-color="#FFE109"/>
</linearGradient>
<radialGradient id="paint1_radial_1:34915" cx="0" cy="0" r="1" gradientUnits="userSpaceOnUse" gradientTransform="translate(24.0797 13.3953) scale(11.8245)">
<stop offset="0.2" stop-color="white"/>
<stop offset="0.95" stop-color="white" stop-opacity="0"/>
</radialGradient>
</defs>
</svg>
