<svg width="24" height="24" viewBox="0 0 24 24" fill="none" xmlns="http://www.w3.org/2000/svg">
<path fill-rule="evenodd" clip-rule="evenodd" d="M12.3002 12.4117C9.70606 12.4117 7.5943 10.3 7.5943 7.70587C7.5943 5.11176 9.70606 3 12.3002 3C14.8943 3 17.006 5.11176 17.006 7.70587C17.006 10.3 14.8943 12.4117 12.3002 12.4117ZM12.3002 5.23529C10.9378 5.23529 9.82958 6.34352 9.82958 7.70587C9.82958 9.06821 10.9378 10.1764 12.3002 10.1764C13.6625 10.1764 14.7707 9.06821 14.7707 7.70587C14.7707 6.34352 13.6625 5.23529 12.3002 5.23529Z" fill="white"/>
<path fill-rule="evenodd" clip-rule="evenodd" d="M17.3412 12.8677C16.9436 12.3536 16.2042 12.26 15.6912 12.6583C15.6795 12.6671 14.4071 13.6071 12.3001 13.6071C10.2013 13.6071 8.89891 12.6589 8.89421 12.6553C8.37833 12.2589 7.64009 12.3553 7.24421 12.8706C6.84774 13.3859 6.94421 14.1247 7.45951 14.5206C7.52245 14.5688 8.75362 15.4971 10.8007 15.8371L7.67598 18.9959C7.21892 19.4582 7.22304 20.2029 7.68539 20.6606C7.9148 20.8871 8.21303 21 8.51244 21C8.81538 21 9.11832 20.8835 9.34891 20.6506L12.3007 17.6665L15.2518 20.6506C15.4812 20.8835 15.7854 21 16.0883 21C16.3865 21 16.6859 20.8871 16.9148 20.66C17.3771 20.2029 17.3812 19.4582 16.9242 18.9965L13.8007 15.8377C15.8459 15.4965 17.0712 14.5671 17.133 14.5183C17.6465 14.1206 17.7401 13.3818 17.3424 12.8683" fill="white"/>
</svg>
