<svg width="24" height="25" viewBox="0 0 24 25" fill="none" xmlns="http://www.w3.org/2000/svg">
<path d="M20 21.3114C20 22.1408 19.3284 22.8131 18.5 22.8131C17.6716 22.8131 17 22.1408 17 21.3114C17 20.482 17.6716 19.8097 18.5 19.8097C19.3284 19.8097 20 20.482 20 21.3114Z" fill="#4C4C4C"/>
<path d="M10 21.3114C10 22.1408 9.32843 22.8131 8.5 22.8131C7.67157 22.8131 7 22.1408 7 21.3114C7 20.482 7.67157 19.8097 8.5 19.8097C9.32843 19.8097 10 20.482 10 21.3114Z" fill="#4C4C4C"/>
<path fill-rule="evenodd" clip-rule="evenodd" d="M1.25 4.7926C1.25 4.37792 1.58579 4.04175 2 4.04175H4.33279C4.89601 4.04175 5.38967 4.41884 5.53841 4.96269L6.10796 7.04517H20.8063C21.6595 7.04517 22.2619 7.88199 21.9921 8.69233L19.3255 16.7014C19.1553 17.2125 18.6777 17.5571 18.1396 17.5571H8.3815C7.81828 17.5571 7.32462 17.18 7.17588 16.6362L4.14204 5.54346H2C1.58579 5.54346 1.25 5.20729 1.25 4.7926ZM6.51868 8.54688L8.57225 16.0554H17.9594L20.4594 8.54688H6.51868Z" fill="#4C4C4C"/>
</svg>
