<svg width="24" height="24" viewBox="0 0 24 24" fill="none" xmlns="http://www.w3.org/2000/svg">
<path fill-rule="evenodd" clip-rule="evenodd" d="M21 6.73567C20.336 7.02862 19.6268 7.22757 18.8792 7.31912C19.6421 6.8614 20.228 6.13637 20.5026 5.27463C19.7898 5.69818 19.0013 6.00698 18.1579 6.17176C17.4823 5.44918 16.5217 5 15.461 5C13.4208 5 11.7687 6.65512 11.7687 8.69594C11.7687 8.98583 11.7992 9.26839 11.8645 9.53936C8.79474 9.38679 6.07039 7.91415 4.2511 5.67498C3.93375 6.22059 3.75066 6.85773 3.75066 7.53272C3.75066 8.81433 4.40734 9.94704 5.39845 10.611C4.78816 10.5958 4.21693 10.428 3.72015 10.149V10.1954C3.72015 11.9879 4.99566 13.4788 6.68434 13.8187C6.37553 13.9024 6.04781 13.9481 5.71214 13.9481C5.47535 13.9481 5.24222 13.9255 5.01763 13.8798C5.48756 15.3481 6.85278 16.4162 8.47006 16.4467C7.20675 17.4384 5.61267 18.0298 3.88065 18.0298C3.58344 18.0298 3.28989 18.0115 3 17.9767C4.62948 19.0368 6.57022 19.647 8.65254 19.647C15.4537 19.647 19.1691 14.014 19.1691 9.12681C19.1691 8.96691 19.1648 8.8064 19.1569 8.65078C19.8783 8.12775 20.5038 7.47901 21 6.73567Z" fill="white"/>
</svg>
