<svg width="24" height="24" viewBox="0 0 24 24" fill="none" xmlns="http://www.w3.org/2000/svg">
<path fill-rule="evenodd" clip-rule="evenodd" d="M11.7854 17.3593H12.9809C12.9809 17.3593 13.342 17.3204 13.5271 17.1214C13.697 16.9393 13.6909 16.5964 13.6909 16.5964C13.6909 16.5964 13.6667 14.9925 14.4119 14.7564C15.1462 14.524 16.0886 16.307 17.0881 16.9927C17.8424 17.5116 18.4171 17.3981 18.4171 17.3981L21.0873 17.3605C21.0873 17.3605 22.4843 17.2755 21.8216 16.1771C21.767 16.0861 21.4356 15.3639 19.836 13.8789C18.161 12.3254 18.3856 12.576 20.4028 9.88762C21.6311 8.25031 22.1226 7.25082 21.9685 6.82298C21.8228 6.41457 20.9186 6.52259 20.9186 6.52259L17.9122 6.54079C17.9122 6.54079 17.6889 6.51045 17.5238 6.60998C17.3624 6.70707 17.2586 6.93282 17.2586 6.93282C17.2586 6.93282 16.7829 8.19994 16.1481 9.27712C14.8094 11.5504 14.2741 11.6706 14.0544 11.5286C13.5459 11.2009 13.6733 10.2074 13.6733 9.50166C13.6733 7.29876 14.0071 6.37998 13.0222 6.14209C12.6945 6.0632 12.4541 6.01101 11.6179 6.00251C10.545 5.99159 9.63711 6.00615 9.12371 6.25739C8.78084 6.42549 8.51685 6.79871 8.67767 6.81995C8.87793 6.84726 9.32701 6.94132 9.56611 7.2666C9.87379 7.68533 9.86347 8.62778 9.86347 8.62778C9.86347 8.62778 10.0395 11.2209 9.44959 11.5425C9.04421 11.764 8.48833 11.3119 7.29525 9.24981C6.67989 8.19266 6.21868 7.02446 6.21868 7.02446C6.21868 7.02446 6.13008 6.80599 5.97108 6.68887C5.7781 6.54747 5.50987 6.50256 5.50987 6.50256L2.65157 6.52077C2.65157 6.52077 2.22252 6.53291 2.06535 6.71982C1.92577 6.88549 2.05321 7.22958 2.05321 7.22958C2.05321 7.22958 4.29069 12.4625 6.82433 15.1005C9.14677 17.5189 11.7842 17.3599 11.7842 17.3599" fill="white"/>
</svg>
