<svg width="24" height="24" viewBox="0 0 24 24" fill="none" xmlns="http://www.w3.org/2000/svg">
<path fill-rule="evenodd" clip-rule="evenodd" d="M21.8 8.03467C21.8 8.03467 21.6047 6.65667 21.0053 6.04933C20.2453 5.25267 19.392 5.24933 19.0013 5.20267C16.2027 5 12.004 5 12.004 5H11.9953C11.9953 5 7.79733 5 4.99867 5.20267C4.608 5.24933 3.75533 5.25267 2.99467 6.04933C2.39467 6.656 2.2 8.03467 2.2 8.03467C2.2 8.03467 2 9.65333 2 11.2713V12.722C2 14.3407 2.2 15.9587 2.2 15.9587C2.2 15.9587 2.39533 17.3373 2.99467 17.944C3.75467 18.7407 4.75467 18.7153 5.2 18.7993C6.8 18.9527 12 18.9993 12 18.9993C12 18.9993 16.2027 18.9927 19.0013 18.7907C19.392 18.744 20.2447 18.74 21.0053 17.944C21.6053 17.3373 21.8 15.9573 21.8 15.9573C21.8 15.9573 22 14.34 22 12.7213V11.2713C22 9.65333 21.8 8.03467 21.8 8.03467ZM9.93533 14.628L9.93333 9.00667L15.3387 11.8267L9.93533 14.6267V14.628Z" fill="white"/>
</svg>
