<?xml version="1.0" encoding="utf-8"?>
<!-- Generator: Adobe Illustrator 21.0.2, SVG Export Plug-In . SVG Version: 6.00 Build 0)  -->
<svg version="1.1" id="Layer_1" xmlns="http://www.w3.org/2000/svg" xmlns:xlink="http://www.w3.org/1999/xlink" x="0px" y="0px"
	 viewBox="0 0 100 100" style="enable-background:new 0 0 100 100;" xml:space="preserve">
<g>
	<path d="M93.1,18.5c-2.4-2.4-6.2-2.7-8.9-0.8c-0.4-0.6-0.9-1.1-1.4-1.6c-0.5-0.5-1.1-1-1.6-1.4c0.8-1.2,1.2-2.5,1.2-3.9
		c0-1.9-0.7-3.6-2-4.9c-0.8-0.8-2-0.8-2.8,0c-0.8,0.8-0.8,2,0,2.8c0.6,0.6,0.9,1.3,0.9,2.1c0,0.8-0.3,1.5-0.9,2.1
		c-4.5-1.4-9.5-0.3-13.1,3.2c-0.6,0.6-1.1,1.3-1.6,2l-3-3c-2.8-2.8-6.6-4.4-10.6-4.4c-4,0-7.8,1.6-10.6,4.4
		c-5.8,5.8-5.8,15.4,0,21.2c0.8,0.8,1.6,1.5,2.5,2c-2.9,3.8-3.2,9.2-0.9,13.8l-0.7,5.1c-0.1,0.6,0.1,1.2,0.6,1.7
		c0.5,0.4,1.1,0.7,1.7,0.6l5.1-0.7c2,1,4.2,1.5,6.4,1.5c2.7,0,5.3-0.8,7.5-2.4c0.6,0.9,1.2,1.7,2,2.4c2.9,2.9,6.8,4.4,10.6,4.4
		c3.8,0,7.7-1.5,10.6-4.4c5.9-5.8,5.9-15.4,0-21.2l-3-3c0.7-0.5,1.4-1,2-1.6c3.5-3.5,4.6-8.6,3.2-13.1c1.2-1.2,3.1-1.2,4.2,0
		c0.4,0.4,0.9,0.6,1.4,0.6s1-0.2,1.4-0.6C93.8,20.6,93.8,19.3,93.1,18.5z M41.4,33.4c-2.1-2.1-3.2-4.8-3.2-7.8
		c0-2.9,1.1-5.7,3.2-7.8c2.1-2.1,4.8-3.2,7.8-3.2c2.9,0,5.7,1.1,7.8,3.2L67.1,28l-13.4,7.4C49.7,37.5,44.6,36.8,41.4,33.4z
		 M48.2,54.9c-0.4-0.2-0.8-0.3-1.3-0.2l-3.1,0.4l0.4-3.1c0.1-0.4,0-0.9-0.2-1.3c-1.9-3.3-1.8-7.2,0.2-10l0.1,0.2
		c2.7,6.1,7.5,11,13.7,13.6l0.2,0.1C55.4,56.6,51.5,56.8,48.2,54.9z M58.3,50.3c-4.2-2.1-7.6-5.5-9.7-9.7c2.2,0,4.4-0.4,6.5-1.5
		c1,2,2.7,3.6,4.7,4.7C58.7,45.9,58.3,48.1,58.3,50.3z M58.6,37.2l6.8-3.7l-3.7,6.8C60.3,39.6,59.3,38.5,58.6,37.2z M81,41.9
		c4.3,4.3,4.3,11.3,0,15.6c-4.3,4.3-11.3,4.3-15.6,0c0,0,0,0,0,0c-3.3-3.2-4.1-8.2-1.9-12.2l7.4-13.4L81,41.9z M80,31.6
		c-0.6,0.6-1.3,1.1-2.1,1.4l-6-6c0,0,0,0,0,0c0,0,0,0,0,0l-6-6c0.4-0.8,0.8-1.5,1.4-2.1c3.5-3.5,9.2-3.5,12.7,0
		C83.5,22.4,83.5,28.1,80,31.6z"/>
	<path d="M34.4,61.7c-0.8,0.8-1.8,1.2-2.8,1.2c0,0,0,0,0,0c-1.1,0-2.1-0.4-2.8-1.2l-2.1-2.1c-1.3-1.3-3.1-2.1-5-2.1c0,0,0,0,0,0
		c-1.9,0-3.6,0.7-5,2.1l-0.1,0.1c-1.3,1.3-2,3.1-2,4.9c0,1.9,0.7,3.6,2.1,4.9l8.8,8.7c1.1,1.1,1.2,2.9,0.1,4c-0.5,0.6-1.3,0.9-2.1,1
		c-0.8,0-1.6-0.3-2.1-0.9l-4.2-4.2c-1.2-1.2-2.8-1.8-4.5-1.8c-1.7,0-3.3,0.7-4.4,1.8c-2.5,2.5-2.5,6.4,0,8.9c0.9,0.9,1,2.4,0.1,3.3
		l-1,1.2c-0.7,0.8-0.6,2.1,0.2,2.8c0.4,0.3,0.8,0.5,1.3,0.5c0.6,0,1.1-0.2,1.5-0.7l1-1.2c2.2-2.5,2-6.4-0.3-8.8
		c-0.9-0.9-0.9-2.3,0-3.2c0.9-0.9,2.4-0.9,3.2,0l4.2,4.2c1.4,1.4,3.2,2.1,5.1,2c1.9,0,3.7-0.9,5-2.3c2.5-2.7,2.4-6.9-0.3-9.5
		l-8.8-8.7c-0.6-0.5-0.9-1.3-0.9-2.1s0.3-1.5,0.9-2.1l0.1-0.1c0.6-0.6,1.3-0.9,2.2-0.9c0,0,0,0,0,0c0.8,0,1.6,0.3,2.1,0.9l2.1,2.1
		c1.5,1.5,3.5,2.4,5.7,2.4c0,0,0,0,0,0c2.1,0,4.1-0.8,5.7-2.3c0.8-0.8,0.8-2,0-2.8C36.4,60.9,35.1,60.9,34.4,61.7z"/>
</g>
</svg>
